<svg xmlns="http://www.w3.org/2000/svg" xmlns:xlink="http://www.w3.org/1999/xlink" viewBox="0,0,256,256" width="24px" height="24px"><g fill="#13953f" fill-rule="nonzero" stroke="none" stroke-width="1" stroke-linecap="butt" stroke-linejoin="miter" stroke-miterlimit="10" stroke-dasharray="" stroke-dashoffset="0" font-family="none" font-weight="none" font-size="none" text-anchor="none" style="mix-blend-mode: normal"><g transform="scale(10.66667,10.66667)"><path d="M20.726,14.204c0.182,-0.721 0.274,-1.459 0.274,-2.204c0,-0.745 -0.092,-1.483 -0.274,-2.204l1.001,-0.758c0.501,-0.379 0.643,-1.077 0.328,-1.621l-1.059,-1.835c-0.315,-0.544 -0.99,-0.77 -1.568,-0.525l-1.167,0.492c-1.075,-1.047 -2.375,-1.8 -3.807,-2.205l-0.156,-1.249c-0.077,-0.624 -0.61,-1.095 -1.239,-1.095h-2.117c-0.629,0 -1.163,0.471 -1.24,1.095l-0.157,1.249c-1.432,0.405 -2.732,1.157 -3.807,2.205l-1.166,-0.492c-0.58,-0.243 -1.253,-0.019 -1.569,0.526l-1.059,1.834c-0.314,0.544 -0.173,1.242 0.328,1.622l1.001,0.758c-0.181,0.72 -0.273,1.458 -0.273,2.203c0,0.745 0.092,1.483 0.274,2.204l-1.001,0.758c-0.501,0.379 -0.643,1.077 -0.328,1.621l1.059,1.835c0.315,0.545 0.988,0.77 1.568,0.525l1.166,-0.492c1.076,1.047 2.376,1.8 3.808,2.205l0.156,1.25c0.077,0.623 0.61,1.094 1.239,1.094h2.117c0.629,0 1.162,-0.471 1.24,-1.095l0.156,-1.249c1.432,-0.405 2.732,-1.157 3.808,-2.205l1.165,0.492c0.579,0.243 1.253,0.019 1.569,-0.526l1.059,-1.834c0.314,-0.544 0.173,-1.242 -0.328,-1.622zM12,16c-2.206,0 -4,-1.794 -4,-4c0,-2.206 1.794,-4 4,-4c2.206,0 4,1.794 4,4c0,2.206 -1.794,4 -4,4z"></path></g></g></svg>