<?xml version="1.0" standalone="no"?>
<!DOCTYPE svg PUBLIC "-//W3C//DTD SVG 20010904//EN"
 "http://www.w3.org/TR/2001/REC-SVG-20010904/DTD/svg10.dtd">
<svg version="1.0" xmlns="http://www.w3.org/2000/svg"
 width="50.000000pt" height="50.000000pt" viewBox="0 0 50.000000 50.000000"
 preserveAspectRatio="xMidYMid meet">

<g transform="translate(0.000000,50.000000) scale(0.100000,-0.100000)"
fill="#000000" stroke="none">
<path d="M193 480 c-12 -14 -30 -20 -58 -20 -31 0 -49 -7 -75 -30 -31 -26 -33
-31 -19 -42 11 -9 23 -62 40 -183 18 -125 29 -175 41 -187 26 -26 230 -26 256
0 12 12 23 62 41 187 17 121 29 174 40 183 14 11 12 16 -19 42 -26 23 -44 30
-75 30 -28 0 -46 6 -58 20 -12 14 -29 20 -57 20 -28 0 -45 -6 -57 -20z m107
-10 c0 -5 -22 -10 -50 -10 -27 0 -50 5 -50 10 0 6 23 10 50 10 28 0 50 -4 50
-10z m123 -42 c15 -7 27 -16 27 -20 0 -5 -90 -8 -200 -8 -110 0 -200 3 -200 8
0 21 56 30 196 31 101 1 159 -3 177 -11z m7 -60 c0 -7 -11 -87 -25 -178 -14
-91 -25 -166 -25 -167 0 -2 -58 -3 -130 -3 l-129 0 -6 32 c-8 50 -45 308 -45
319 0 5 74 9 180 9 137 0 180 -3 180 -12z"/>
<path d="M120 319 c0 -26 32 -244 36 -248 7 -8 4 34 -11 144 -14 97 -25 144
-25 104z"/>
<path d="M207 205 c3 -72 7 -132 9 -134 8 -9 2 225 -6 244 -4 11 -6 -37 -3
-110z"/>
<path d="M286 315 c-3 -9 -5 -69 -5 -133 l2 -117 8 130 c4 71 6 131 5 133 -2
1 -6 -4 -10 -13z"/>
<path d="M370 324 c0 -5 -7 -54 -15 -109 -15 -101 -18 -152 -11 -144 8 8 38
250 32 256 -3 4 -6 2 -6 -3z"/>
</g>
</svg>
