<svg width="18" height="15" viewBox="0 0 18 15" fill="none" xmlns="http://www.w3.org/2000/svg">
<path d="M5.625 0C5.02826 0 4.45597 0.225765 4.03401 0.627628C3.61205 1.02949 3.375 1.57454 3.375 2.14286V4.28571H2.25C1.65326 4.28571 1.08097 4.51148 0.65901 4.91334C0.237053 5.31521 0 5.86025 0 6.42857L0 9.64286C0 10.2112 0.237053 10.7562 0.65901 11.1581C1.08097 11.5599 1.65326 11.7857 2.25 11.7857H3.375V12.8571C3.375 13.4255 3.61205 13.9705 4.03401 14.3724C4.45597 14.7742 5.02826 15 5.625 15H12.375C12.9717 15 13.544 14.7742 13.966 14.3724C14.3879 13.9705 14.625 13.4255 14.625 12.8571V11.7857H15.75C16.3467 11.7857 16.919 11.5599 17.341 11.1581C17.7629 10.7562 18 10.2112 18 9.64286V6.42857C18 5.86025 17.7629 5.31521 17.341 4.91334C16.919 4.51148 16.3467 4.28571 15.75 4.28571H14.625V2.14286C14.625 1.57454 14.3879 1.02949 13.966 0.627628C13.544 0.225765 12.9717 0 12.375 0H5.625ZM4.5 2.14286C4.5 1.8587 4.61853 1.58617 4.8295 1.38524C5.04048 1.18431 5.32663 1.07143 5.625 1.07143H12.375C12.6734 1.07143 12.9595 1.18431 13.1705 1.38524C13.3815 1.58617 13.5 1.8587 13.5 2.14286V4.28571H4.5V2.14286ZM5.625 7.5C5.02826 7.5 4.45597 7.72576 4.03401 8.12763C3.61205 8.52949 3.375 9.07454 3.375 9.64286V10.7143H2.25C1.95163 10.7143 1.66548 10.6014 1.4545 10.4005C1.24353 10.1995 1.125 9.92702 1.125 9.64286V6.42857C1.125 6.14441 1.24353 5.87189 1.4545 5.67096C1.66548 5.47003 1.95163 5.35714 2.25 5.35714H15.75C16.0484 5.35714 16.3345 5.47003 16.5455 5.67096C16.7565 5.87189 16.875 6.14441 16.875 6.42857V9.64286C16.875 9.92702 16.7565 10.1995 16.5455 10.4005C16.3345 10.6014 16.0484 10.7143 15.75 10.7143H14.625V9.64286C14.625 9.07454 14.3879 8.52949 13.966 8.12763C13.544 7.72576 12.9717 7.5 12.375 7.5H5.625ZM13.5 9.64286V12.8571C13.5 13.1413 13.3815 13.4138 13.1705 13.6148C12.9595 13.8157 12.6734 13.9286 12.375 13.9286H5.625C5.32663 13.9286 5.04048 13.8157 4.8295 13.6148C4.61853 13.4138 4.5 13.1413 4.5 12.8571V9.64286C4.5 9.3587 4.61853 9.08617 4.8295 8.88524C5.04048 8.68431 5.32663 8.57143 5.625 8.57143H12.375C12.6734 8.57143 12.9595 8.68431 13.1705 8.88524C13.3815 9.08617 13.5 9.3587 13.5 9.64286Z" fill="white"/>
</svg>
