<svg width="35" height="41" viewBox="0 0 35 41" fill="none" xmlns="http://www.w3.org/2000/svg">
<path d="M10.7692 14.8077C11.1262 14.8077 11.4686 14.9496 11.7211 15.202C11.9735 15.4545 12.1154 15.7969 12.1154 16.1539V32.3077C12.1154 32.6648 11.9735 33.0072 11.7211 33.2596C11.4686 33.5121 11.1262 33.6539 10.7692 33.6539C10.4122 33.6539 10.0698 33.5121 9.81734 33.2596C9.56489 33.0072 9.42307 32.6648 9.42307 32.3077V16.1539C9.42307 15.7969 9.56489 15.4545 9.81734 15.202C10.0698 14.9496 10.4122 14.8077 10.7692 14.8077ZM17.5 14.8077C17.857 14.8077 18.1994 14.9496 18.4519 15.202C18.7043 15.4545 18.8461 15.7969 18.8461 16.1539V32.3077C18.8461 32.6648 18.7043 33.0072 18.4519 33.2596C18.1994 33.5121 17.857 33.6539 17.5 33.6539C17.143 33.6539 16.8006 33.5121 16.5481 33.2596C16.2957 33.0072 16.1538 32.6648 16.1538 32.3077V16.1539C16.1538 15.7969 16.2957 15.4545 16.5481 15.202C16.8006 14.9496 17.143 14.8077 17.5 14.8077ZM25.5769 16.1539C25.5769 15.7969 25.4351 15.4545 25.1826 15.202C24.9302 14.9496 24.5878 14.8077 24.2308 14.8077C23.8737 14.8077 23.5313 14.9496 23.2789 15.202C23.0264 15.4545 22.8846 15.7969 22.8846 16.1539V32.3077C22.8846 32.6648 23.0264 33.0072 23.2789 33.2596C23.5313 33.5121 23.8737 33.6539 24.2308 33.6539C24.5878 33.6539 24.9302 33.5121 25.1826 33.2596C25.4351 33.0072 25.5769 32.6648 25.5769 32.3077V16.1539Z" fill="#13953F"/>
<path d="M35 8.07692C35 8.79097 34.7163 9.47577 34.2114 9.98067C33.7065 10.4856 33.0217 10.7692 32.3077 10.7692H30.9615V35C30.9615 36.4281 30.3942 37.7977 29.3844 38.8075C28.3746 39.8173 27.005 40.3846 25.5769 40.3846H9.42308C7.99499 40.3846 6.62539 39.8173 5.61558 38.8075C4.60577 37.7977 4.03846 36.4281 4.03846 35V10.7692H2.69231C1.97826 10.7692 1.29346 10.4856 0.788559 9.98067C0.283653 9.47577 0 8.79097 0 8.07692V5.38462C0 4.67057 0.283653 3.98577 0.788559 3.48087C1.29346 2.97596 1.97826 2.69231 2.69231 2.69231H12.1154C12.1154 1.97826 12.399 1.29346 12.9039 0.788559C13.4088 0.283653 14.0936 0 14.8077 0L20.1923 0C20.9064 0 21.5912 0.283653 22.0961 0.788559C22.601 1.29346 22.8846 1.97826 22.8846 2.69231H32.3077C33.0217 2.69231 33.7065 2.97596 34.2114 3.48087C34.7163 3.98577 35 4.67057 35 5.38462V8.07692ZM7.04846 10.7692L6.73077 10.9281V35C6.73077 35.714 7.01442 36.3988 7.51933 36.9038C8.02423 37.4087 8.70903 37.6923 9.42308 37.6923H25.5769C26.291 37.6923 26.9758 37.4087 27.4807 36.9038C27.9856 36.3988 28.2692 35.714 28.2692 35V10.9281L27.9515 10.7692H7.04846ZM2.69231 8.07692H32.3077V5.38462H2.69231V8.07692Z" fill="#13953F"/>
</svg>
